# xmcd
#
# Track frame offsets:
#	150
#	13552
#	26834
#	39851
#	56420
#	74075
#	86924
#	100239
#	112408
#	129525
#	148842
#	166017
#	181634
#	197321
#	201330
#	216440
#
# Disc length: 3092 seconds
#
# Revision: 0
# Processed by: cddbd v1.5PL3 Copyright (c) Steve Scherf et al.
# Submitted via: audiograbber 1.83.01
#
DISCID=e90c1210
DTITLE=La Légion Etrangère - La Légion Etrangère
DYEAR=1986
DGENRE=Marche
TTITLE0=Premier partout - Marche du 1er R.E.I.
TTITLE1=Le boudin
TTITLE2=Défilé du 3ème R.E.I.
TTITLE3=Sidi Bel Abbès - Défilé du centenaire de la Légion Etrangère
TTITLE4=Le chant du 1er R.E.C.
TTITLE5=Colonel Vienot
TTITLE6=La Légion marche - Marche du 2ème R.E.P.
TTITLE7=Gai Légionnaire - Marche du 2ème Etranger
TTITLE8=Contre les Viets - Marche du 1er R.E.P.
TTITLE9=Le grand Atlas - Marche du 4ème Etranger
TTITLE10=Camerone 1963 - Marche du centenaire de Camerone
TTITLE11=Le criquet
TTITLE12=Figuid
TTITLE13=Le salut au Caïd
TTITLE14=Marche du 5ème R.E.I.
TTITLE15=Marche de la Légion Etrangère
EXTD=
EXTT0=
EXTT1=
EXTT2=
EXTT3=
EXTT4=
EXTT5=
EXTT6=
EXTT7=
EXTT8=
EXTT9=
EXTT10=
EXTT11=
EXTT12=
EXTT13=
EXTT14=
EXTT15=
PLAYORDER=
